<svg width="12" height="12" viewBox="0 0 12 12" fill="none" xmlns="http://www.w3.org/2000/svg">
<g id="arrow_right_right_m">
<path id="union" d="M9.75013 5.86728L6.6605 2.85901C6.46222 2.66682 6.4573 2.35027 6.6495 2.15199C6.84169 1.95372 7.15824 1.94879 7.35652 2.14099L10.7669 5.46082C11.0709 5.75553 11.0785 6.24089 10.7838 6.54492C10.7754 6.55345 10.7754 6.55345 10.7669 6.5618L7.34801 9.85792C7.14973 10.0501 6.83318 10.0452 6.64099 9.84691C6.44879 9.64863 6.45372 9.33209 6.65199 9.13989L9.7494 6.15458C9.82893 6.07793 9.83127 5.95132 9.75461 5.87179C9.75314 5.87026 9.75165 5.86876 9.75013 5.86728Z" fill="black" fill-opacity="0.45"/>
</g>
</svg>
