<svg width="14" height="14" viewBox="0 0 14 14" fill="none" xmlns="http://www.w3.org/2000/svg">
<g id="details">
<g id="union">
<path d="M7.69992 4.22925C7.69992 4.63196 7.37346 4.95841 6.97075 4.95841C6.56805 4.95841 6.24159 4.63196 6.24159 4.22925C6.24159 3.82654 6.56805 3.50008 6.97075 3.50008C7.37346 3.50008 7.69992 3.82654 7.69992 4.22925Z" fill="black" fill-opacity="0.45"/>
<path d="M7.60474 5.66116C7.70781 5.7585 7.75733 5.89975 7.7376 6.04014L7.21803 9.49997L7.48165 9.43703C7.71666 9.38091 7.95267 9.52594 8.00879 9.76095C8.06491 9.99597 7.91988 10.232 7.68486 10.2881L6.79709 10.5001C6.65637 10.5337 6.50815 10.4955 6.40112 10.3982C6.29409 10.3009 6.2421 10.1569 6.26224 10.0137L6.78531 6.52892L6.50218 6.5854C6.26522 6.63267 6.03481 6.47889 5.98754 6.24194C5.94027 6.00498 6.09404 5.77457 6.331 5.7273L7.21877 5.55021C7.35781 5.52247 7.50166 5.56383 7.60474 5.66116Z" fill="black" fill-opacity="0.45"/>
<path d="M12.8332 7.00008C12.8332 10.2217 10.2215 12.8334 6.99984 12.8334C3.77818 12.8334 1.1665 10.2217 1.1665 7.00008C1.1665 3.77842 3.77818 1.16675 6.99984 1.16675C10.2215 1.16675 12.8332 3.77842 12.8332 7.00008ZM11.9582 7.00008C11.9582 4.26167 9.73825 2.04175 6.99984 2.04175C4.26143 2.04175 2.0415 4.26167 2.0415 7.00008C2.0415 9.73849 4.26143 11.9584 6.99984 11.9584C9.73825 11.9584 11.9582 9.73849 11.9582 7.00008Z" fill="black" fill-opacity="0.45"/>
</g>
</g>
</svg>
